<svg xmlns="http://www.w3.org/2000/svg" xml:space="preserve" id="图层_1" x="0" y="0" viewBox="0 0 430.3 158.9">
  <style>
    .st0{fill:#724598}.st3{fill-rule:evenodd;clip-rule:evenodd}
  </style>
  <path d="M253.4 94.7q-7.7 0-12.9-5.5a20 20 0 0 1-5.2-13.8q0-8 4.9-12.7c4.9-4.7 7.7-4.8 13.1-4.8q7.7 0 12.8 5.5t5.1 13.9q0 8-4.9 12.7-4.6 4.7-12.9 4.7m5.6-18.1q0-7-1.4-10.6-1.5-3.5-4.4-3.5-2.7 0-4.1 3.4-1.3 3.3-1.3 10.2 0 7.1 1.5 10.6 1.4 3.6 4.4 3.6 2.7 0 4.1-3.4 1.2-3.4 1.2-10.3m26.6 6.2q0 3.2 1.1 4.3 1 1.2 4.2 1.1h2.9v5.2H284q-5.4 0-7.6-2.3c-2.2-2.3-2.2-4.3-2.2-8.2V37.8h11.5z" class="st0"/>
  <path d="M309 94.7q-7.7 0-12.9-5.5a20 20 0 0 1-5.2-13.8q0-8 4.9-12.7c4.9-4.7 7.7-4.8 13.1-4.8q7.7 0 12.8 5.5t5.1 13.9q0 8-4.9 12.7-4.6 4.7-12.9 4.7m5.6-18.1q0-7-1.4-10.6t-4.4-3.5q-2.7 0-4.1 3.4-1.3 3.3-1.3 10.2 0 7.1 1.5 10.6 1.4 3.6 4.4 3.6 2.7 0 4.1-3.4 1.1-3.4 1.2-10.3M65.3 80.4q1.6 3.8 4 5.8t5.3 2q3 0 4.9-1.8a6 6 0 0 0 1.9-4.4q0-2.1-1.4-3.9-1.5-1.7-4.7-3.5l-2.1-1.1a63 63 0 0 1-8.5-5q-3-2.6-4.2-5.1a14 14 0 0 1-1.2-6q0-7.5 5-12.3t13.1-4.8q5.7 0 10 2.6a17 17 0 0 1 6.7 7.5l-5.9 4.1q-1.5-3.8-4-5.6a9 9 0 0 0-5.7-1.9q-2.7 0-4.6 1.7a6 6 0 0 0-1.8 4.3q0 2.2 1.5 3.8 1.5 1.7 5.8 3.8l1 .5q8 4 9.6 5.3 2.9 2.4 4.1 5 1.3 2.7 1.3 6.1A16 16 0 0 1 90 90a20 20 0 0 1-13.9 4.8q-6.2 0-10.8-2.7a17 17 0 0 1-7.1-7.6z" class="st0"/>
  <path fill="#8ab826" d="M135.6 44.9q0-2.4 1.7-4.2a5 5 0 0 1 4.1-1.7q2.5 0 4.2 1.7a6 6 0 0 1 0 8.4 6 6 0 0 1-4.2 1.7q-2.4 0-4.1-1.7a6 6 0 0 1-1.7-4.2m.2 14.2h11.3v34.5h-11.3z"/>
  <path fill="#e9a94a" d="M158.4 71.2v22.5h-5.6v-29q0-3.4 1.4-5.1t4.3-1.6q2.4 0 4.2 1.3t3.8 4.5l7.7 12.5V59.1h5.6v30.1q0 3.2-.9 4.4t-3 1.3q-1.5 0-2.9-1.1a17 17 0 0 1-3.2-4z"/>
  <path d="M141.4 37.8a6.6 6.6 0 1 1-6.6 6.6c0-3.7 2.9-6.6 6.6-6.6" class="st3"/>
  <path fill="#35a0d3" d="M103.4 89.5c-1.4-2.7-.3-6 2.5-7.4q2.3-1 4.5-.2v-5.3h8.3v17l.1.1H130V59.1h-11.3V71h-8.3V37.9H99.1v55.8h6.6z"/>
  <path fill-rule="evenodd" stroke="#fcfbfd" stroke-miterlimit="10" stroke-width="3" d="M246.7 81.9c.6-1.3 2-1.9 3.3-1.3s1.9 2 1.3 3.3a80.4 80.4 0 0 1-98.8 44.4A80 80 0 0 1 106 88.2a2.6 2.6 0 0 1 1.1-3.4c1.3-.6 2.8-.1 3.4 1.1a75.3 75.3 0 0 0 100.8 33.4 77 77 0 0 0 35.4-37.4" clip-rule="evenodd"/>
  <path d="M246 81.9c.6-1.3 2-1.9 3.3-1.3s1.9 2 1.3 3.3a80.4 80.4 0 0 1-98.8 44.4 80 80 0 0 1-46.5-40.1 2.6 2.6 0 0 1 1.1-3.4c1.3-.6 2.8-.1 3.4 1.1a75.3 75.3 0 0 0 100.8 33.4A77 77 0 0 0 246 81.9" class="st3"/>
  <path fill="#d23918" d="M228.4 76.9a24 24 0 0 1-6.3 8.4q-3.6 2.8-7.9 2.8-6.9 0-11.1-5.6a24 24 0 0 1-4.2-14.8q0-9.9 3.7-15.4 2.7-4 7.1-5c-5.3.9-10.6 3.5-13 8.5q-.9 1.7-1.2 3.7l-.1.5-.3 2.4-4.7-.6.3-2.5.5-4.4q.8-5.5 3.9-9.9-2.1 1.4-3.9 3.2a27 27 0 0 0-7.9 19.9q0 6.4 2.4 11.6 2.5 5.3 7.3 9.2 3.6 3 8.2 4.5t9.9 1.5q8.3 0 14.3-3.6t9.3-10.4z"/>
  <path d="M193.5 55.3c1-6.7 4.7-11.6 9.1-14.1a16 16 0 0 1 7.8-2.1h.2q3.8 0 7.2 1.7c5.1 2.6 7.7 7.5 8.9 13.2l.5 2.9q-.8-1.8-1.8-3.4c-3.4-5.9-8.6-9.6-15.2-8.7-6.1.8-12.7 3.8-15.7 9.9q-1.2 2.4-1.5 5z" class="st3"/>
  <path d="M353.2 61.1a6 6 0 0 0-4.5-1.9q-3.5 0-5.6 1.6l-2.6 2.2v-3.9h-11.3v34.5h11.3V65.8l.8-1.6q1.2-1.6 1.9-1.6.3 0 .1.7l-.5 1.9q0 2.3 1.7 4.3a6 6 0 0 0 4.7 2q2.2 0 4-1.8a6 6 0 0 0 1.8-4.4q.2-2.3-1.8-4.2" class="st0"/>
</svg>
